<?xml version="1.0" encoding="iso-8859-1"?>
<!-- Generator: Adobe Illustrator 16.0.0, SVG Export Plug-In . SVG Version: 6.00 Build 0)  -->
<!DOCTYPE svg PUBLIC "-//W3C//DTD SVG 1.1//EN" "http://www.w3.org/Graphics/SVG/1.1/DTD/svg11.dtd">
<svg version="1.1" id="Capa_1" xmlns="http://www.w3.org/2000/svg" xmlns:xlink="http://www.w3.org/1999/xlink" x="0px" y="0px"
	 width="108.364px" height="108.364px" viewBox="0 0 108.364 108.364" style="enable-background:new 0 0 108.364 108.364;"
	 xml:space="preserve">
<g>
	<g>
		<path d="M54.182,0C24.258,0,0,24.258,0,54.182c0,29.924,24.258,54.183,54.182,54.183c29.923,0,54.182-24.259,54.182-54.183
			C108.364,24.258,84.105,0,54.182,0z M68.713,33.622c3.424,0,6.201,2.777,6.201,6.201c0,3.426-2.777,6.203-6.201,6.203
			c-3.423,0-6.203-2.777-6.203-6.203C62.51,36.399,65.29,33.622,68.713,33.622z M40.594,33.622c3.423,0,6.2,2.777,6.2,6.201
			c0,3.426-2.777,6.203-6.2,6.203c-3.423,0-6.201-2.777-6.201-6.203C34.393,36.399,37.17,33.622,40.594,33.622z M77.17,65.221
			C73.327,74.107,64.327,79.85,54.242,79.85c-10.301,0-19.354-5.771-23.064-14.703c-0.636-1.529,0.089-3.285,1.62-3.92
			c0.376-0.156,0.766-0.23,1.15-0.23c1.176,0,2.292,0.695,2.771,1.85c2.777,6.686,9.655,11.004,17.523,11.004
			c7.689,0,14.527-4.321,17.421-11.01c0.658-1.521,2.424-2.223,3.944-1.564S77.828,63.7,77.17,65.221z" fill="#888"/>
	</g>
</g>
</svg>
