<svg height="512pt" viewBox="0 0 512 512" width="512pt" xmlns="http://www.w3.org/2000/svg"><path d="m447.703125 223.867188c0 123.628906-100.222656 223.851562-223.851563 223.851562-123.628906 0-223.851562-100.222656-223.851562-223.851562 0-123.632813 100.222656-223.851563 223.851562-223.851563 123.628907 0 223.851563 100.21875 223.851563 223.851563zm0 0" fill="#00d66a"/><path d="m447.722656 223.882812c0 123.609376-100.234375 223.84375-223.882812 223.84375v-447.726562c123.648437 0 223.882812 100.234375 223.882812 223.882812zm0 0" fill="#00b85e"/><path d="m223.867188 64.257812c-8.285157 0-15 6.71875-15 15v129.601563h-81.398438c-8.285156 0-15 6.714844-15 15s6.714844 15 15 15h96.398438c8.28125 0 15-6.714844 15-15v-144.601563c0-8.28125-6.71875-15-15-15zm0 0" fill="#eff6fe"/><path d="m223.867188 64.257812c-.011719 0-.019532.003907-.027344.003907v174.597656h.027344c8.28125 0 15-6.71875 15-15v-144.601563c0-8.28125-6.71875-15-15-15zm0 0" fill="#d9e4ef"/><path d="m320.265625 257.066406c-34.90625 0-63.199219 28.242188-63.199219 63.199219v176.734375c0 7.972656 6.425782 15 15 15 2.910156 0 5.8125-.847656 8.320313-2.519531l44.421875-29.613281h123.992187c34.847657 0 63.199219-28.351563 63.199219-63.199219v-96.402344c0-34.847656-28.351562-63.199219-63.199219-63.199219zm0 0" fill="#eff6fe"/><path d="m448.800781 257.070312h-64.269531v222.800782h64.269531c34.847657 0 63.199219-28.359375 63.199219-63.199219v-96.402344c0-34.847656-28.351562-63.199219-63.199219-63.199219zm0 0" fill="#d9e4ef"/><path d="m369.53125 385.601562h-33.199219c-8.28125 0-15 6.714844-15 15 0 8.28125 6.71875 15 15 15h33.199219c8.285156 0 15-6.71875 15-15 0-8.285156-6.714844-15-15-15zm0 0" fill="#3ab4fb"/><path d="m432.734375 321.332031h-96.402344c-8.28125 0-15 6.71875-15 15 0 8.285157 6.71875 15 15 15h96.402344c8.28125 0 15-6.714843 15-15 0-8.28125-6.714844-15-15-15zm0 0" fill="#3ab4fb"/><path d="m447.730469 336.328125c0 8.292969-6.710938 15-15 15h-48.199219v-30h48.199219c8.289062 0 15 6.722656 15 15zm0 0" fill="#1d9cfd"/></svg>